<svg width="28" height="28" viewBox="0 0 28 28" fill="none" xmlns="http://www.w3.org/2000/svg">
<g clip-path="url(#clip0_1_34)">
<path d="M26.4113 13.5354H23.7628C23.6397 13.5354 23.5215 13.5843 23.4344 13.6714C23.3473 13.7585 23.2984 13.8767 23.2984 13.9999C23.2984 14.123 23.3473 14.2412 23.4344 14.3283C23.5215 14.4154 23.6397 14.4643 23.7628 14.4643H26.4113L25.5875 15.2853C25.5002 15.3723 25.4511 15.4904 25.4509 15.6136C25.4508 15.7368 25.4995 15.855 25.5865 15.9423C25.6735 16.0295 25.7916 16.0786 25.9148 16.0788C26.0381 16.079 26.1563 16.0302 26.2436 15.9432L27.8634 14.3289C27.9067 14.2857 27.941 14.2344 27.9645 14.178C27.9879 14.1215 28 14.061 28 13.9999C28 13.9387 27.9879 13.8782 27.9645 13.8217C27.941 13.7653 27.9067 13.714 27.8634 13.6708L26.2436 12.0565C26.1563 11.9695 26.0381 11.9207 25.9148 11.9209C25.7916 11.9211 25.6735 11.9702 25.5865 12.0574C25.4995 12.1447 25.4508 12.2629 25.4509 12.3861C25.4511 12.5094 25.5002 12.6275 25.5875 12.7145L26.4113 13.5354ZM1.75645 15.9432C1.79965 15.9863 1.85091 16.0204 1.90731 16.0437C1.9637 16.0669 2.02412 16.0788 2.08511 16.0787C2.14611 16.0786 2.20649 16.0665 2.2628 16.0431C2.31911 16.0196 2.37026 15.9853 2.41332 15.9421C2.45638 15.8989 2.4905 15.8477 2.51375 15.7913C2.537 15.7349 2.54891 15.6745 2.54881 15.6135C2.54871 15.5525 2.53659 15.4921 2.51315 15.4358C2.48972 15.3795 2.45542 15.3283 2.41222 15.2853L1.58843 14.4643H4.23686C4.36005 14.4643 4.47819 14.4154 4.56529 14.3283C4.65239 14.2412 4.70133 14.123 4.70133 13.9999C4.70133 13.8767 4.65239 13.7585 4.56529 13.6714C4.47819 13.5843 4.36005 13.5354 4.23686 13.5354H1.58843L2.41222 12.7145C2.45542 12.6714 2.48972 12.6202 2.51315 12.5639C2.53659 12.5076 2.54871 12.4472 2.54881 12.3862C2.54891 12.3253 2.537 12.2648 2.51375 12.2084C2.4905 12.152 2.45638 12.1008 2.41332 12.0576C2.37026 12.0144 2.31911 11.9801 2.2628 11.9566C2.20649 11.9332 2.14611 11.9211 2.08511 11.921C2.02412 11.9209 1.9637 11.9328 1.90731 11.956C1.85091 11.9793 1.79965 12.0134 1.75645 12.0565L0.136629 13.6708C0.0933224 13.714 0.0589609 13.7653 0.035515 13.8217C0.0120691 13.8782 0 13.9387 0 13.9999C0 14.061 0.0120691 14.1215 0.035515 14.178C0.0589609 14.2344 0.0933224 14.2857 0.136629 14.3289L1.75645 15.9432ZM13.9999 23.2984C13.8767 23.2984 13.7585 23.3473 13.6714 23.4344C13.5843 23.5215 13.5354 23.6397 13.5354 23.7628V26.4113L12.7144 25.5875C12.6714 25.5443 12.6202 25.51 12.5639 25.4866C12.5075 25.4631 12.4471 25.451 12.3861 25.4509C12.2629 25.4508 12.1447 25.4995 12.0574 25.5865C11.9702 25.6735 11.9211 25.7916 11.9209 25.9148C11.9207 26.0381 11.9695 26.1563 12.0565 26.2436L13.6708 27.8634C13.714 27.9067 13.7653 27.941 13.8217 27.9645C13.8782 27.9879 13.9387 28 13.9999 28C14.061 28 14.1215 27.9879 14.178 27.9645C14.2344 27.941 14.2857 27.9067 14.3289 27.8634L15.9432 26.2436C16.0302 26.1563 16.079 26.0381 16.0788 25.9148C16.0786 25.7916 16.0295 25.6735 15.9423 25.5865C15.855 25.4995 15.7368 25.4508 15.6136 25.4509C15.4904 25.4511 15.3723 25.5002 15.2853 25.5875L14.4643 26.4113V23.7628C14.4643 23.6397 14.4154 23.5215 14.3283 23.4344C14.2412 23.3473 14.123 23.2984 13.9999 23.2984ZM12.7144 2.41222L13.5354 1.58843V4.23687C13.5354 4.36005 13.5843 4.47819 13.6714 4.56529C13.7585 4.6524 13.8767 4.70133 13.9999 4.70133C14.123 4.70133 14.2412 4.6524 14.3283 4.56529C14.4154 4.47819 14.4643 4.36005 14.4643 4.23687V1.58843L15.2853 2.41222C15.3722 2.49947 15.4903 2.54861 15.6135 2.54881C15.7367 2.54902 15.8549 2.50028 15.9421 2.41332C16.0294 2.32636 16.0785 2.2083 16.0787 2.08512C16.0789 1.96193 16.0302 1.84371 15.9432 1.75645L14.3289 0.136633C14.2857 0.0933262 14.2344 0.0589648 14.178 0.0355188C14.1215 0.0120729 14.061 3.8147e-06 13.9999 3.8147e-06C13.9387 3.8147e-06 13.8782 0.0120729 13.8217 0.0355188C13.7653 0.0589648 13.714 0.0933262 13.6708 0.136633L12.0565 1.75645C12.0134 1.79966 11.9793 1.85092 11.956 1.90731C11.9328 1.9637 11.9209 2.02412 11.921 2.08512C11.9211 2.14611 11.9332 2.20649 11.9566 2.2628C11.9801 2.31912 12.0144 2.37026 12.0576 2.41332C12.1008 2.45638 12.152 2.49051 12.2084 2.51376C12.2648 2.537 12.3252 2.54892 12.3862 2.54881C12.4472 2.54871 12.5076 2.53659 12.5639 2.51316C12.6202 2.48972 12.6714 2.45542 12.7144 2.41222Z" fill="black"/>
<path d="M18.6568 9.33334H9.34324C8.722 9.33398 8.12642 9.54781 7.68714 9.92792C7.24786 10.308 7.00074 10.8234 7 11.3609V16.6391C7.00074 17.1766 7.24786 17.692 7.68714 18.0721C8.12642 18.4522 8.722 18.666 9.34324 18.6667H18.6568C19.278 18.666 19.8736 18.4522 20.3129 18.0721C20.7521 17.692 20.9993 17.1766 21 16.6391V11.3609C20.9993 10.8234 20.7521 10.308 20.3129 9.92792C19.8736 9.54781 19.278 9.33398 18.6568 9.33334ZM9.34324 10.1444H18.6568C19.0295 10.1447 19.3869 10.273 19.6505 10.5011C19.9141 10.7292 20.0623 11.0384 20.0627 11.3609V11.8928H7.93729V11.3609C7.93769 11.0384 8.08595 10.7292 8.34952 10.5011C8.6131 10.273 8.97048 10.1447 9.34324 10.1444ZM18.6568 17.8556H9.34324C8.97048 17.8553 8.6131 17.727 8.34952 17.4989C8.08595 17.2708 7.93769 16.9616 7.93729 16.6391V12.7039H20.0627V16.6391C20.0623 16.9616 19.9141 17.2708 19.6505 17.4989C19.3869 17.727 19.0295 17.8553 18.6568 17.8556ZM18.7817 15.9591C18.7817 16.0666 18.7323 16.1698 18.6444 16.2458C18.5566 16.3219 18.4373 16.3646 18.3131 16.3646H17.1894C17.0651 16.3646 16.9459 16.3219 16.858 16.2458C16.7702 16.1698 16.7208 16.0666 16.7208 15.9591C16.7208 15.8515 16.7702 15.7484 16.858 15.6723C16.9459 15.5963 17.0651 15.5536 17.1894 15.5536H18.3131C18.4373 15.5536 18.5566 15.5963 18.6444 15.6723C18.7323 15.7484 18.7817 15.8515 18.7817 15.9591Z" fill="black"/>
</g>
<defs>
<clipPath id="clip0_1_34">
<rect width="28" height="28" fill="white"/>
</clipPath>
</defs>
</svg>
