<svg width="22" height="18" viewBox="0 0 22 18" fill="none" xmlns="http://www.w3.org/2000/svg">
<path d="M17.9557 0.944412H4.04443C3.11652 0.945524 2.22692 1.31463 1.57079 1.97077C0.914651 2.6269 0.545545 3.5165 0.544434 4.44441V13.5553C0.545545 14.4832 0.914651 15.3728 1.57079 16.029C2.22692 16.6851 3.11652 17.0542 4.04443 17.0553H17.9557C18.8836 17.0542 19.7732 16.6851 20.4293 16.029C21.0855 15.3728 21.4546 14.4832 21.4557 13.5553V4.44441C21.4546 3.5165 21.0855 2.6269 20.4293 1.97077C19.7732 1.31463 18.8836 0.945524 17.9557 0.944412ZM4.04443 2.34441H17.9557C18.5124 2.34501 19.0462 2.56645 19.4399 2.96014C19.8336 3.35384 20.0551 3.88764 20.0557 4.44441V5.36253H1.94443V4.44441C1.94503 3.88764 2.16647 3.35384 2.56016 2.96014C2.95386 2.56645 3.48766 2.34501 4.04443 2.34441ZM17.9557 15.6553H4.04443C3.48766 15.6547 2.95386 15.4333 2.56016 15.0396C2.16647 14.6459 1.94503 14.1121 1.94443 13.5553V6.76253H20.0557V13.5553C20.0551 14.1121 19.8336 14.6459 19.4399 15.0396C19.0462 15.4333 18.5124 15.6547 17.9557 15.6553ZM18.1423 12.3816C18.1423 12.5672 18.0685 12.7453 17.9373 12.8765C17.806 13.0078 17.6279 13.0816 17.4423 13.0816H15.764C15.5783 13.0816 15.4003 13.0078 15.269 12.8765C15.1377 12.7453 15.064 12.5672 15.064 12.3816C15.064 12.1959 15.1377 12.0179 15.269 11.8866C15.4003 11.7553 15.5783 11.6816 15.764 11.6816H17.4423C17.6279 11.6816 17.806 11.7553 17.9373 11.8866C18.0685 12.0179 18.1423 12.1959 18.1423 12.3816Z" fill="black"/>
</svg>
