<svg width="28" height="28" viewBox="0 0 28 28" fill="none" xmlns="http://www.w3.org/2000/svg">
<path d="M14 4.66667C11.8325 4.67183 9.73372 5.4277 8.06063 6.8057V6.36364C8.06063 6.13861 7.97123 5.92279 7.81211 5.76367C7.65299 5.60455 7.43717 5.51515 7.21214 5.51515C6.98711 5.51515 6.77129 5.60455 6.61217 5.76367C6.45305 5.92279 6.36366 6.13861 6.36366 6.36364V8.90909C6.36366 8.9303 6.37384 8.94897 6.37554 8.97018C6.3812 9.02426 6.392 9.07767 6.40778 9.1297C6.42058 9.18211 6.43819 9.23324 6.46038 9.28242C6.48447 9.3291 6.51288 9.37341 6.54523 9.41479C6.56388 9.44764 6.58487 9.47912 6.60802 9.50897C6.62329 9.52424 6.64366 9.53018 6.65978 9.54376C6.6759 9.55733 6.68354 9.576 6.69966 9.58873C6.72928 9.60504 6.75988 9.61949 6.79129 9.632C6.84108 9.66222 6.894 9.68697 6.94911 9.70582C7.00001 9.72132 7.0523 9.73183 7.10523 9.73721C7.1404 9.74628 7.17611 9.75308 7.21214 9.75758H9.7576C9.98263 9.75758 10.1984 9.66818 10.3576 9.50906C10.5167 9.34994 10.6061 9.13412 10.6061 8.90909C10.6061 8.68406 10.5167 8.46824 10.3576 8.30912C10.1984 8.15 9.98263 8.06061 9.7576 8.06061H9.21372C10.5621 6.97708 12.2386 6.38395 13.9684 6.3785C15.6981 6.37306 17.3784 6.95562 18.7335 8.03064C20.0886 9.10565 21.0382 10.6093 21.4265 12.2949C21.8147 13.9805 21.6186 15.7481 20.8702 17.3076C20.1219 18.8671 18.8658 20.126 17.3079 20.8777C15.7501 21.6295 13.983 21.8296 12.2965 21.445C10.61 21.0605 9.1043 20.1143 8.0263 18.7615C6.9483 17.4087 6.36203 15.7298 6.36366 14C6.36366 13.775 6.27426 13.5592 6.11514 13.4C5.95602 13.2409 5.7402 13.1515 5.51517 13.1515C5.29014 13.1515 5.07432 13.2409 4.9152 13.4C4.75608 13.5592 4.66669 13.775 4.66669 14C4.66669 15.846 5.21408 17.6505 6.23964 19.1853C7.2652 20.7202 8.72286 21.9165 10.4283 22.6229C12.1338 23.3293 14.0104 23.5141 15.8209 23.154C17.6314 22.7939 19.2944 21.905 20.5997 20.5997C21.905 19.2944 22.7939 17.6313 23.154 15.8208C23.5141 14.0104 23.3293 12.1337 22.6229 10.4283C21.9165 8.72284 20.7202 7.26518 19.1853 6.23962C17.6505 5.21406 15.846 4.66667 14 4.66667Z" fill="black"/>
<path d="M14.1944 15.1667C14.4523 15.1667 14.6996 15.0745 14.8819 14.9104C15.0642 14.7463 15.1666 14.5237 15.1666 14.2917V9.04167C15.1666 8.8096 15.0642 8.58704 14.8819 8.42295C14.6996 8.25886 14.4523 8.16667 14.1944 8.16667C13.9366 8.16667 13.6893 8.25886 13.507 8.42295C13.3246 8.58704 13.2222 8.8096 13.2222 9.04167V13.4167H10.3055C10.0477 13.4167 9.8004 13.5089 9.61807 13.6729C9.43574 13.837 9.33331 14.0596 9.33331 14.2917C9.33331 14.5237 9.43574 14.7463 9.61807 14.9104C9.8004 15.0745 10.0477 15.1667 10.3055 15.1667H14.1944Z" fill="black"/>
</svg>
